<svg width="15" height="20" viewBox="0 0 15 20" fill="none"
    xmlns="http://www.w3.org/2000/svg">
    <path d="M4.75033 8.16659H5.66699C5.91011 8.16659 6.14327 8.07001 6.31517 7.8981C6.48708 7.72619 6.58366 7.49303 6.58366 7.24992C6.58366 7.0068 6.48708 6.77365 6.31517 6.60174C6.14327 6.42983 5.91011 6.33325 5.66699 6.33325H4.75033C4.50721 6.33325 4.27405 6.42983 4.10214 6.60174C3.93024 6.77365 3.83366 7.0068 3.83366 7.24992C3.83366 7.49303 3.93024 7.72619 4.10214 7.8981C4.27405 8.07001 4.50721 8.16659 4.75033 8.16659ZM4.75033 9.99992C4.50721 9.99992 4.27405 10.0965 4.10214 10.2684C3.93024 10.4403 3.83366 10.6735 3.83366 10.9166C3.83366 11.1597 3.93024 11.3929 4.10214 11.5648C4.27405 11.7367 4.50721 11.8333 4.75033 11.8333H10.2503C10.4934 11.8333 10.7266 11.7367 10.8985 11.5648C11.0704 11.3929 11.167 11.1597 11.167 10.9166C11.167 10.6735 11.0704 10.4403 10.8985 10.2684C10.7266 10.0965 10.4934 9.99992 10.2503 9.99992H4.75033ZM14.8337 7.19492C14.8241 7.11071 14.8057 7.02775 14.7787 6.94742V6.86492C14.7346 6.77067 14.6758 6.68403 14.6045 6.60825L9.10449 1.10825C9.02872 1.03695 8.94208 0.97816 8.84783 0.934085C8.82046 0.930199 8.79269 0.930199 8.76533 0.934085C8.67221 0.880681 8.56936 0.846401 8.46283 0.833252H2.91699C2.18765 0.833252 1.48817 1.12298 0.972449 1.63871C0.456724 2.15443 0.166992 2.85391 0.166992 3.58325V16.4166C0.166992 17.1459 0.456724 17.8454 0.972449 18.3611C1.48817 18.8769 2.18765 19.1666 2.91699 19.1666H12.0837C12.813 19.1666 13.5125 18.8769 14.0282 18.3611C14.5439 17.8454 14.8337 17.1459 14.8337 16.4166V7.24992C14.8337 7.24992 14.8337 7.24992 14.8337 7.19492ZM9.33366 3.95909L11.7078 6.33325H10.2503C10.0072 6.33325 9.77405 6.23667 9.60214 6.06477C9.43024 5.89286 9.33366 5.6597 9.33366 5.41659V3.95909ZM13.0003 16.4166C13.0003 16.6597 12.9037 16.8929 12.7318 17.0648C12.5599 17.2367 12.3268 17.3333 12.0837 17.3333H2.91699C2.67388 17.3333 2.44072 17.2367 2.26881 17.0648C2.0969 16.8929 2.00033 16.6597 2.00033 16.4166V3.58325C2.00033 3.34014 2.0969 3.10698 2.26881 2.93507C2.44072 2.76316 2.67388 2.66659 2.91699 2.66659H7.50033V5.41659C7.50033 6.14593 7.79006 6.8454 8.30578 7.36113C8.82151 7.87685 9.52098 8.16659 10.2503 8.16659H13.0003V16.4166ZM10.2503 13.6666H4.75033C4.50721 13.6666 4.27405 13.7632 4.10214 13.9351C3.93024 14.107 3.83366 14.3401 3.83366 14.5833C3.83366 14.8264 3.93024 15.0595 4.10214 15.2314C4.27405 15.4033 4.50721 15.4999 4.75033 15.4999H10.2503C10.4934 15.4999 10.7266 15.4033 10.8985 15.2314C11.0704 15.0595 11.167 14.8264 11.167 14.5833C11.167 14.3401 11.0704 14.107 10.8985 13.9351C10.7266 13.7632 10.4934 13.6666 10.2503 13.6666Z" fill="#101010"/>
</svg>
