<svg width="18" height="18" viewBox="0 0 18 18" fill="none" xmlns="http://www.w3.org/2000/svg">
    <path d="M8.99739 16.1953H2.69922C2.46059 16.1953 2.23174 16.1005 2.06301 15.9318C1.89427 15.763 1.79948 15.5342 1.79948 15.2956V2.69922C1.79948 2.46059 1.89427 2.23174 2.06301 2.06301C2.23174 1.89427 2.46059 1.79948 2.69922 1.79948H7.19791V4.4987C7.19791 5.21457 7.48229 5.90113 7.9885 6.40733C8.4947 6.91353 9.18125 7.19791 9.89713 7.19791H12.5963V8.09765C12.5963 8.33628 12.6911 8.56513 12.8599 8.73386C13.0286 8.9026 13.2575 8.99739 13.4961 8.99739C13.7347 8.99739 13.9636 8.9026 14.1323 8.73386C14.301 8.56513 14.3958 8.33628 14.3958 8.09765V6.29817C14.3958 6.29817 14.3958 6.29817 14.3958 6.24419C14.3865 6.16153 14.3684 6.0801 14.3418 6.00126V5.92028C14.2986 5.82777 14.2409 5.74273 14.1709 5.66836L8.77246 0.269922C8.69808 0.199937 8.61304 0.142232 8.52053 0.0989712C8.49367 0.0951565 8.46641 0.0951565 8.43955 0.0989712C8.34815 0.0465536 8.24721 0.012906 8.14264 0H2.69922C1.98334 0 1.29678 0.284381 0.790583 0.790583C0.284381 1.29678 0 1.98334 0 2.69922V15.2956C0 16.0114 0.284381 16.698 0.790583 17.2042C1.29678 17.7104 1.98334 17.9948 2.69922 17.9948H8.99739C9.23602 17.9948 9.46487 17.9 9.6336 17.7313C9.80234 17.5625 9.89713 17.3337 9.89713 17.095C9.89713 16.8564 9.80234 16.6276 9.6336 16.4588C9.46487 16.2901 9.23602 16.1953 8.99739 16.1953ZM8.99739 3.06811L11.3277 5.39843H9.89713C9.6585 5.39843 9.42965 5.30364 9.26092 5.13491C9.09219 4.96617 8.99739 4.73732 8.99739 4.4987V3.06811ZM4.4987 5.39843C4.26007 5.39843 4.03122 5.49323 3.86248 5.66196C3.69375 5.8307 3.59896 6.05955 3.59896 6.29817C3.59896 6.5368 3.69375 6.76565 3.86248 6.93439C4.03122 7.10312 4.26007 7.19791 4.4987 7.19791H5.39843C5.63706 7.19791 5.86591 7.10312 6.03465 6.93439C6.20338 6.76565 6.29817 6.5368 6.29817 6.29817C6.29817 6.05955 6.20338 5.8307 6.03465 5.66196C5.86591 5.49323 5.63706 5.39843 5.39843 5.39843H4.4987ZM17.7339 16.4562L16.6812 15.4125C17.0176 14.8252 17.1523 14.1438 17.0645 13.4727C16.9768 12.8015 16.6715 12.1777 16.1953 11.6966C15.7572 11.2428 15.1925 10.9316 14.5749 10.8033C13.9573 10.675 13.3154 10.7357 12.7328 10.9775C12.1502 11.2193 11.6539 11.6309 11.3086 12.1588C10.9633 12.6867 10.785 13.3063 10.7969 13.937C10.7938 14.4797 10.9326 15.0138 11.1996 15.4863C11.4666 15.9588 11.8525 16.3532 12.319 16.6306C12.7855 16.9079 13.3164 17.0585 13.859 17.0674C14.4017 17.0763 14.9372 16.9431 15.4125 16.6812L16.4562 17.7339C16.5399 17.8182 16.6394 17.8851 16.749 17.9308C16.8587 17.9765 16.9763 18 17.095 18C17.2138 18 17.3314 17.9765 17.4411 17.9308C17.5507 17.8851 17.6502 17.8182 17.7339 17.7339C17.8182 17.6502 17.8851 17.5507 17.9308 17.4411C17.9765 17.3314 18 17.2138 18 17.095C18 16.9763 17.9765 16.8587 17.9308 16.749C17.8851 16.6394 17.8182 16.5399 17.7339 16.4562ZM14.8817 14.8817C14.6247 15.1234 14.2852 15.2579 13.9325 15.2579C13.5797 15.2579 13.2402 15.1234 12.9832 14.8817C12.7356 14.6296 12.5966 14.2904 12.5963 13.937C12.5945 13.7595 12.6286 13.5835 12.6966 13.4196C12.7647 13.2556 12.8652 13.1072 12.9922 12.9832C13.2321 12.7447 13.5538 12.6063 13.892 12.5963C14.0739 12.5852 14.2561 12.6117 14.4273 12.6743C14.5985 12.7369 14.7548 12.8342 14.8866 12.96C15.0184 13.0859 15.1228 13.2377 15.1931 13.4058C15.2635 13.5739 15.2984 13.7547 15.2956 13.937C15.2881 14.2942 15.1393 14.634 14.8817 14.8817ZM9.89713 8.99739H4.4987C4.26007 8.99739 4.03122 9.09219 3.86248 9.26092C3.69375 9.42965 3.59896 9.6585 3.59896 9.89713C3.59896 10.1358 3.69375 10.3646 3.86248 10.5333C4.03122 10.7021 4.26007 10.7969 4.4987 10.7969H9.89713C10.1358 10.7969 10.3646 10.7021 10.5333 10.5333C10.7021 10.3646 10.7969 10.1358 10.7969 9.89713C10.7969 9.6585 10.7021 9.42965 10.5333 9.26092C10.3646 9.09219 10.1358 8.99739 9.89713 8.99739ZM8.09765 14.3958C8.33628 14.3958 8.56513 14.301 8.73386 14.1323C8.9026 13.9636 8.99739 13.7347 8.99739 13.4961C8.99739 13.2575 8.9026 13.0286 8.73386 12.8599C8.56513 12.6911 8.33628 12.5963 8.09765 12.5963H4.4987C4.26007 12.5963 4.03122 12.6911 3.86248 12.8599C3.69375 13.0286 3.59896 13.2575 3.59896 13.4961C3.59896 13.7347 3.69375 13.9636 3.86248 14.1323C4.03122 14.301 4.26007 14.3958 4.4987 14.3958H8.09765Z" fill="#101010"/>
    </svg>
    