<svg width="18" height="18" viewBox="0 0 18 18" fill="none"
    xmlns="http://www.w3.org/2000/svg">
    <path d="M17.7653 8.63938C17.7699 8.14847 17.6355 7.66622 17.3776 7.24842C17.1196 6.83061 16.7487 6.4943 16.3077 6.27838L4.29299 0.282083C3.81094 0.0377229 3.26498 -0.0510025 2.73048 0.0281548C2.19597 0.107312 1.69928 0.350448 1.30896 0.724C0.918647 1.09755 0.653959 1.5831 0.551436 2.11361C0.448913 2.64412 0.513611 3.19344 0.736601 3.68573L2.79911 8.29303C2.84602 8.398 2.8708 8.5115 2.87192 8.62645C2.87304 8.7414 2.85046 8.85534 2.80559 8.96117L0.738407 13.5741C0.515524 14.0561 0.446698 14.5952 0.541303 15.1178C0.635909 15.6405 0.889346 16.1214 1.26708 16.4949L1.31163 16.5394C1.7011 16.915 2.19827 17.1593 2.73347 17.2381C3.26866 17.317 3.81504 17.2264 4.29604 16.979L16.3213 10.9744C16.7559 10.7587 17.1215 10.4258 17.3767 10.0131C17.6319 9.60048 17.7665 9.12463 17.7653 8.63938ZM15.5447 9.39619L3.48126 15.3754C3.33176 15.4542 3.16093 15.4831 2.99376 15.4579C2.8266 15.4327 2.67187 15.3547 2.55221 15.2352C2.43141 15.1183 2.34904 14.9674 2.31605 14.8026C2.28306 14.6378 2.30101 14.4668 2.36751 14.3125L4.4347 9.69959C4.58511 9.36462 4.66337 9.00172 4.6644 8.63448C4.66543 8.26724 4.58921 7.90385 4.44067 7.56793L2.3718 2.95426C2.30037 2.80026 2.27913 2.62772 2.31107 2.46102C2.34301 2.29433 2.42652 2.1419 2.5498 2.02527C2.66941 1.90585 2.82411 1.82786 2.99127 1.8027C3.15842 1.77755 3.32926 1.80654 3.4788 1.88545L15.5126 7.90084C15.6585 7.96224 15.7834 8.06456 15.8723 8.19543C15.9613 8.3263 16.0104 8.48011 16.0138 8.63828C16.0172 8.79645 15.9747 8.9522 15.8915 9.0867C15.8082 9.2212 15.6878 9.3287 15.5447 9.39619Z" fill="#101010"/>
</svg>
    