<svg width="20" height="20" viewBox="0 0 20 20" fill="none"
    xmlns="http://www.w3.org/2000/svg">
    <path d="M10.5409 10.9167L8.43254 13.0158C8.34662 13.1011 8.27843 13.2024 8.23189 13.3141C8.18535 13.4259 8.16139 13.5457 8.16139 13.6667C8.16139 13.7877 8.18535 13.9075 8.23189 14.0192C8.27843 14.1309 8.34662 14.2323 8.43254 14.3175C8.51776 14.4034 8.61914 14.4716 8.73085 14.5182C8.84255 14.5647 8.96236 14.5887 9.08337 14.5887C9.20438 14.5887 9.3242 14.5647 9.4359 14.5182C9.54761 14.4716 9.64899 14.4034 9.73421 14.3175L13.4009 10.6508C13.4843 10.5637 13.5497 10.4609 13.5934 10.3483C13.6851 10.1252 13.6851 9.87485 13.5934 9.65168C13.5497 9.53916 13.4843 9.43635 13.4009 9.34918L9.73421 5.68251C9.64874 5.59704 9.54727 5.52924 9.4356 5.48299C9.32393 5.43673 9.20425 5.41293 9.08337 5.41293C8.9625 5.41293 8.84282 5.43673 8.73115 5.48299C8.61948 5.52924 8.51801 5.59704 8.43254 5.68251C8.34707 5.76798 8.27927 5.86944 8.23302 5.98111C8.18676 6.09278 8.16296 6.21247 8.16296 6.33334C8.16296 6.45421 8.18676 6.5739 8.23302 6.68557C8.27927 6.79724 8.34707 6.89871 8.43254 6.98418L10.5409 9.08334H1.75004C1.50693 9.08334 1.27377 9.17992 1.10186 9.35183C0.929951 9.52374 0.833374 9.7569 0.833374 10C0.833374 10.2431 0.929951 10.4763 1.10186 10.6482C1.27377 10.8201 1.50693 10.9167 1.75004 10.9167H10.5409ZM10 0.833343C8.28687 0.825695 6.60585 1.29829 5.14764 2.19752C3.68942 3.09675 2.51239 4.38663 1.75004 5.92084C1.64064 6.13965 1.62264 6.39295 1.7 6.62502C1.77735 6.8571 1.94374 7.04894 2.16254 7.15834C2.38134 7.26774 2.63465 7.28575 2.86672 7.20839C3.0988 7.13103 3.29064 6.96465 3.40004 6.74584C3.97955 5.57555 4.86105 4.58124 5.95346 3.86567C7.04587 3.15009 8.30954 2.7392 9.6139 2.67547C10.9183 2.61174 12.216 2.89747 13.3729 3.50314C14.5299 4.10882 15.5041 5.01245 16.195 6.12067C16.8858 7.22889 17.2682 8.50149 17.3026 9.80694C17.337 11.1124 17.0221 12.4034 16.3906 13.5464C15.7591 14.6895 14.8338 15.6432 13.7103 16.3089C12.5868 16.9746 11.3059 17.3283 10 17.3333C8.63318 17.3393 7.29235 16.9597 6.13142 16.2382C4.9705 15.5166 4.03653 14.4824 3.43671 13.2542C3.32731 13.0354 3.13547 12.869 2.90339 12.7916C2.67131 12.7143 2.41801 12.7323 2.19921 12.8417C1.9804 12.9511 1.81402 13.1429 1.73666 13.375C1.6593 13.6071 1.67731 13.8604 1.78671 14.0792C2.51347 15.5417 3.61777 16.7836 4.98539 17.6762C6.35301 18.5689 7.93428 19.08 9.56565 19.1566C11.197 19.2332 12.8192 18.8726 14.2645 18.1121C15.7098 17.3515 16.9256 16.2187 17.7863 14.8307C18.6469 13.4427 19.1211 11.85 19.1598 10.2173C19.1985 8.58456 18.8003 6.97115 18.0064 5.54394C17.2125 4.11673 16.0517 2.92753 14.6441 2.09936C13.2365 1.27118 11.6332 0.83411 10 0.833343Z" fill="#101010"/>
</svg>
    