<svg width="4" height="18" viewBox="0 0 4 18" fill="none"
    xmlns="http://www.w3.org/2000/svg">
    <path d="M1.99984 4.41667C2.36244 4.41667 2.71689 4.30914 3.01838 4.1077C3.31987 3.90625 3.55486 3.61992 3.69362 3.28492C3.83238 2.94992 3.86868 2.5813 3.79795 2.22567C3.72721 1.87004 3.5526 1.54337 3.2962 1.28697C3.0398 1.03058 2.71314 0.855967 2.3575 0.785228C2.00187 0.714488 1.63325 0.750794 1.29825 0.889555C0.963254 1.02832 0.676927 1.2633 0.475477 1.56479C0.274028 1.86628 0.166505 2.22074 0.166505 2.58333C0.166505 3.06956 0.359659 3.53588 0.703476 3.8797C1.04729 4.22351 1.51361 4.41667 1.99984 4.41667ZM1.99984 13.5833C1.63724 13.5833 1.28278 13.6909 0.981293 13.8923C0.679803 14.0938 0.44482 14.3801 0.306059 14.7151C0.167298 15.0501 0.130992 15.4187 0.201732 15.7743C0.272471 16.13 0.44708 16.4566 0.703476 16.713C0.959872 16.9694 1.28654 17.144 1.64217 17.2148C1.9978 17.2855 2.36643 17.2492 2.70142 17.1104C3.03642 16.9717 3.32275 16.7367 3.5242 16.4352C3.72565 16.1337 3.83317 15.7793 3.83317 15.4167C3.83317 14.9304 3.64002 14.4641 3.2962 14.1203C2.95238 13.7765 2.48607 13.5833 1.99984 13.5833ZM1.99984 7.16667C1.63724 7.16667 1.28278 7.27419 0.981293 7.47564C0.679803 7.67709 0.44482 7.96342 0.306059 8.29842C0.167298 8.63341 0.130992 9.00204 0.201732 9.35767C0.272471 9.7133 0.44708 10.04 0.703476 10.2964C0.959872 10.5528 1.28654 10.7274 1.64217 10.7981C1.9978 10.8688 2.36643 10.8325 2.70142 10.6938C3.03642 10.555 3.32275 10.32 3.5242 10.0185C3.72565 9.71706 3.83317 9.3626 3.83317 9C3.83317 8.51377 3.64002 8.04746 3.2962 7.70364C2.95238 7.35982 2.48607 7.16667 1.99984 7.16667Z" fill="#101010"/>
</svg>
    