<svg width="16" height="20" viewBox="0 0 16 20" fill="none"
    xmlns="http://www.w3.org/2000/svg">
    <path d="M8.10285 19.625C7.38887 19.624 6.69658 19.3796 6.14017 18.9322C5.58376 18.4848 5.19649 17.8611 5.04225 17.1639C5.01333 17.0443 5.00858 16.92 5.02829 16.7985C5.048 16.6769 5.09178 16.5605 5.15705 16.4561C5.22232 16.3517 5.30777 16.2614 5.4084 16.1904C5.50903 16.1195 5.62281 16.0693 5.74307 16.0429C5.86333 16.0165 5.98765 16.0143 6.10876 16.0366C6.22986 16.0588 6.3453 16.105 6.44832 16.1725C6.55134 16.2399 6.63986 16.3272 6.70869 16.4293C6.77753 16.5314 6.82529 16.6462 6.84919 16.767C6.91253 17.0523 7.07128 17.3074 7.29921 17.4903C7.52714 17.6732 7.81063 17.7728 8.10285 17.7728C8.39508 17.7728 8.67856 17.6732 8.90649 17.4903C9.13443 17.3074 9.29317 17.0523 9.35651 16.767C9.38096 16.6463 9.42926 16.5318 9.49856 16.43C9.56786 16.3282 9.65679 16.2413 9.76012 16.1743C9.86344 16.1073 9.9791 16.0617 10.1003 16.04C10.2215 16.0183 10.3458 16.021 10.466 16.048C10.5861 16.075 10.6997 16.1256 10.8 16.1971C10.9003 16.2685 10.9853 16.3592 11.0501 16.4639C11.1149 16.5686 11.1581 16.6852 11.1773 16.8068C11.1964 16.9285 11.1911 17.0527 11.1616 17.1723C11.0301 17.7537 10.7361 18.2859 10.3138 18.7067C9.89152 19.1275 9.35835 19.4197 8.77641 19.5491C8.55532 19.5988 8.32946 19.6243 8.10285 19.625Z" fill="#101010"/>
    <path d="M14.3794 15.3283H1.82339C1.583 15.328 1.34681 15.2652 1.13797 15.1462C0.929135 15.0271 0.754803 14.8558 0.632055 14.6491C0.509308 14.4425 0.442355 14.2074 0.437754 13.9671C0.433154 13.7267 0.491064 13.4893 0.605812 13.2781L1.49957 11.6321C2.10027 10.5534 2.28148 9.29082 2.00843 8.08669C1.89676 7.61276 1.84026 7.1275 1.84004 6.64058C1.84016 5.79366 2.01196 4.95556 2.34505 4.17689C2.67814 3.39822 3.16561 2.69515 3.77802 2.11015C4.39043 1.52515 5.11507 1.07036 5.90817 0.773254C6.70126 0.476146 7.54636 0.342887 8.39239 0.381525C11.5983 0.524933 14.2212 3.15068 14.3619 6.3621C14.3848 6.90346 14.3376 7.44552 14.2212 7.97474C13.9389 9.21749 14.1123 10.5203 14.7097 11.646L15.5952 13.2781C15.71 13.4894 15.7679 13.727 15.7632 13.9675C15.7585 14.208 15.6914 14.4432 15.5684 14.6499C15.4455 14.8567 15.2709 15.0279 15.0618 15.1468C14.8527 15.2658 14.6163 15.3283 14.3757 15.3283H14.3794ZM2.60242 13.4779H13.6023L13.0869 12.5286C12.2783 11.0131 12.0406 9.25756 12.4171 7.58152C12.5535 6.95376 12.5514 6.30379 12.4109 5.67692C12.2704 5.05005 11.9949 4.46137 11.6035 3.9519C11.2122 3.44244 10.7144 3.02445 10.145 2.72708C9.57553 2.42971 8.94807 2.26011 8.30635 2.2301C7.71003 2.20271 7.11434 2.29649 6.55528 2.50576C5.99621 2.71503 5.48537 3.03546 5.0536 3.44768C4.62184 3.8599 4.27811 4.35537 4.04319 4.90415C3.80826 5.45293 3.68701 6.04363 3.68677 6.64058C3.68717 6.98324 3.7269 7.32472 3.80519 7.65832C4.1841 9.30504 3.94196 11.0337 3.12516 12.5129L2.60242 13.4779Z" fill="#101010"/>
</svg>
    